<?xml version="1.0" encoding="UTF-8"?> <!-- Generator: Adobe Illustrator 26.1.0, SVG Export Plug-In . SVG Version: 6.00 Build 0) --> <svg xmlns="http://www.w3.org/2000/svg" xmlns:xlink="http://www.w3.org/1999/xlink" version="1.1" id="Layer_1" x="0px" y="0px" viewBox="0 0 635.04 360.01" style="enable-background:new 0 0 635.04 360.01;" xml:space="preserve"> <style type="text/css"> .st0{fill:#201B13;} .st1{fill:#F8D30F;} .st2{fill:#ED1E24;} .st3{fill:#FDFDFD;} </style> <path class="st0" d="M519.57,315.78c4.2-4.18,7.95-4.09,12.31-0.17c1.54,1.38,5.24,1.62,7.35,0.81c4.26-1.63,6.64,0.03,7.92,3.48 c2,5.39,5.99,8.17,11.06,9.95c4.99,1.76,7.45,5.49,7.71,10.59c0.2,3.98,0.39,8.03-0.11,11.96c-0.74,5.83-3.14,7.6-9.02,7.6 c-79.49,0-158.97-0.02-238.46-0.01c-80.15,0-160.31,0.02-240.46,0.03c-7.45,0-9.56-1.59-10.2-9.07c-0.38-4.43-0.56-9.22,0.76-13.33 c0.97-3.01,4.11-5.97,7.03-7.56c4.63-2.52,8.97-4.65,10.91-10.15c1.32-3.73,4.12-5.02,8.44-3.4c2.05,0.77,5.62,0.22,7.25-1.18 c4.31-3.71,7.94-3.54,12.03,0.57c5.72-5.4,10.95-2.3,16.12,1.02c1.4,0.9,2.65,2.03,4.04,2.93c6.08,3.94,10.5,2.47,11.31-4.59 c2.35-20.5,4.12-41.07,6.21-61.6c1-9.82,1.11-19.91,3.58-29.36c3.2-12.26,8.11-24.11,12.77-35.94c2.75-6.98,2.2-8.76-4.35-12.75 c-22.87-13.9-46.14-27.25-68.26-42.29C63.89,111.79,40.44,82.29,20.29,50.2C13.34,39.13,7.77,27.17,1.98,15.42 c-1.48-3-1.65-6.74-1.94-10.18c-0.31-3.62,1.46-5.3,5.4-5.24c16.6,0.28,32.78,3.19,48.69,7.66c51.63,14.51,94.9,43.02,132.81,80.17 c11.4,11.17,21.82,23.35,32.48,35.27c7.4,8.28,13.7,9.84,23.92,5.11c42.13-19.52,85.27-21.81,129.31-7.42 c6.61,2.16,12.97,5.15,19.34,7.99c9.53,4.25,16.84,2.72,23.54-5.4c30.57-37.1,65.67-68.9,108-92.19 c30.08-16.55,62.06-27.32,96.32-30.85c3.47-0.36,7-0.12,10.49-0.33c3.55-0.21,5.24,1.66,4.58,4.81c-1.32,6.27-2.1,12.97-4.94,18.55 c-26.77,52.54-63.45,96.26-114.73,126.64c-15.31,9.07-30.75,17.93-46.13,26.89c-4.86,2.83-5.59,4.95-3.1,9.75 c6.35,12.24,9.44,25.49,12.4,38.82c6.44,28.94,5.4,58.54,8.03,87.81c0.27,2.99-0.31,6.7,3.43,7.4c2.99,0.56,6.4,0.01,9.37-0.89 c2.27-0.69,4.08-2.8,6.21-4.08C511.52,312.08,513.28,312.1,519.57,315.78z M421.66,354.61c1.18-3.14,2.05-6.4,3.57-9.31 c5.64-10.81,11.19-21.72,24.09-25.93c9.08-2.97,17.76-0.94,26.53,1.26c2.1,0.53,4.39,0.29,6.59,0.41c-0.12-2.09,0.15-4.29-0.42-6.25 c-4.19-14.2-6.14-28.76-5.46-43.46c1.52-32.74-6.67-62.97-21.99-91.6c-1.06-1.98-1.96-4.35-1.97-6.54 c-0.02-3.71,2.81-5.35,5.68-3.16c4.39,3.35,8.42,2.64,12.45,0c24.08-15.76,48.21-31.45,72.07-47.54c4.39-2.96,7.93-7.39,11.31-11.59 c6.84-8.49,10.94-18.57,13.57-28.92c4.89-19.24,8.94-38.69,13.04-58.12c1.19-5.62-1.85-8.17-7.51-6.87 c-4.54,1.04-9.06,2.26-13.45,3.8c-32.95,11.53-60.93,31.13-86.86,53.96c-19.55,17.22-37.04,36.41-53.44,56.63 c-7.89,9.73-15.63,11.73-26.6,6.46c-50.44-24.22-101.02-20.82-151.55-0.55c-12.5,5.02-17.9,4.11-26.66-6.07 c-28.45-33.07-59.06-63.81-95.86-87.73c-17.96-11.68-36.81-21.56-58.2-25.46c-7.37-1.34-7.77-1.06-7.2,6.52 c1.66,21.91,7.16,42.93,14.31,63.65c6.07,17.59,16.74,31.12,32.3,41.2c17.32,11.22,34.3,22.98,51.61,34.22 c4.28,2.78,9.11,4.93,13.97,6.5c2.97,0.96,6.49,0.35,9.75,0.27c2.34-0.06,4.67-0.43,7-0.66c-0.3,2.5-0.47,5.03-0.97,7.5 c-0.22,1.08-1.02,2.1-1.74,3.01c-13.52,17.17-17.44,37.38-18.84,58.48c-1.2,18.11-2.41,36.23-4.22,54.29 c-0.72,7.21-3.01,14.28-4.73,21.37c-0.58,2.41-1.63,4.7-2.46,7.05c2.67-0.22,5.33-0.42,8-0.66c0.32-0.03,0.61-0.26,0.92-0.38 c23.29-8.65,47.42,5.33,51.75,29.85c0.2,1.15,1.83,2.92,2.83,2.94c22.66,0.51,45.31,0.85,67.97,1.07c1.02,0.01,2.06-1.33,3.09-2.04 c-0.97-0.82-1.88-2.24-2.92-2.35c-8.44-0.87-15.16-4.83-20.49-11.2c-1.05-1.25-1.13-3.32-1.66-5.01c1.58,0.74,3.58,1.08,4.66,2.27 c10.27,11.22,20.37,12.28,33.3,4c4.83-3.09,10.27-5.49,15.73-7.29c5.46-1.81,11.12-0.74,15.52,3.17 c11.76,10.47,29.93,11.85,40.31-0.61c0.62-0.74,2.25-0.63,3.41-0.92c-0.19,1.29,0.09,3.01-0.64,3.81 c-4.96,5.45-10.97,9.44-18.45,9.96c-4.98,0.34-4.67,2.89-4.04,6.59C373.11,354.61,397.37,354.61,421.66,354.61z M521.29,354.41 c0-0.01,0-0.02,0-0.02c10.5,0,21,0.1,31.5-0.11c1.5-0.03,3.6-1.11,4.36-2.36c4.67-7.66,2.1-15.67-6.49-19.64 c-3.02-1.4-4.67-3.07-5.57-6.26c-1.22-4.27-3.49-4.95-6.29-1.7c-3.34,3.88-5.33,2.66-7.59-0.82c-0.89-1.36-2.01-2.98-3.39-3.5 c-1.24-0.46-3.99-0.02-4.34,0.78c-2.64,6.05-4.75,2.53-7.45,0.08c-1.71-1.55-4.09-2.36-6.17-3.51c-0.97,2.17-2.5,4.28-2.78,6.54 c-0.46,3.72-1.48,4.1-4.78,2.52c-1.33-0.64-5.3,0.85-5.29,1.32c0.16,8.55-5.1,14.19-10.16,19.99c-0.18,0.21-0.09,0.64-0.23,0.92 c-2.43,4.9-1.94,5.73,3.69,5.75C500.62,354.44,510.95,354.41,521.29,354.41z M148.58,352.65c-3.25-4.57-4.99-8.81-8.15-10.96 c-3.4-2.31-3.39-4.77-3.38-7.93c0.01-1.64,0.21-3.8-0.69-4.81c-1.28-1.42-4.12-3.25-5.22-2.71c-4.75,2.34-5.25-0.06-5.76-3.83 c-0.24-1.76-1.38-4.32-2.7-4.76c-1.31-0.44-3.4,1.25-5.06,2.17c-0.7,0.38-1.23,1.12-1.73,1.78c-2.38,3.12-4.39,4-6.33-0.5 c-1.28-2.96-3.44-2.75-5.51-0.62c-1.04,1.07-2.12,2.16-2.88,3.42c-2.05,3.42-3.97,3.82-6.91,0.7c-3.23-3.44-5.53-2.95-6.65,1.44 c-0.85,3.3-2.54,4.85-5.56,6.21c-7.68,3.46-10.45,10.35-7.98,18.17c0.86,2.72,2.29,4.03,5.35,4.01c20.99-0.1,41.97-0.02,62.96-0.11 C144.12,354.33,145.87,353.42,148.58,352.65z M202.43,353.9c-3.04-9.01-6.32-16.92-13.45-22.43c-11.95-9.23-24.31-6.53-36.61-0.81 c-6.77,3.14-7.47,4.58-4.73,11.48c1.38,3.47,3.72,6.63,5.99,9.64c0.85,1.12,2.76,2.02,4.2,2.04 C172.43,353.96,187.02,353.9,202.43,353.9z M429.67,353.44c0.98,0.22,1.72,0.54,2.46,0.54c13.16-0.02,26.33,0.02,39.49-0.16 c6.42-0.09,11.79-6.44,13.67-14.64c1.67-7.27-4.4-7.39-8.17-9.72c-0.56-0.35-1.2-0.58-1.83-0.81c-9.87-3.57-19.78-5.14-29.36,0.64 C436.97,334.71,432.95,343.62,429.67,353.44z M288.79,354.66c18.27,0,36.34,0,54.4,0c1.65-4.04,0.01-5.65-3.72-6.98 c-3.81-1.36-7.74-3.26-10.72-5.92c-7.34-6.56-17.21-6.81-24.84-0.51c-3.37,2.78-7.39,4.99-11.44,6.65 C289.31,349.2,287.66,350.57,288.79,354.66z"></path> <path class="st1" d="M421.66,354.61c-24.29,0-48.55,0-73,0c-0.63-3.69-0.94-6.25,4.04-6.59c7.48-0.51,13.49-4.51,18.45-9.96 c0.73-0.8,0.45-2.52,0.64-3.81c-1.16,0.29-2.79,0.18-3.41,0.92c-10.38,12.46-28.55,11.08-40.31,0.61 c-4.39-3.91-10.05-4.98-15.52-3.17c-5.46,1.8-10.9,4.2-15.73,7.29c-12.93,8.28-23.03,7.22-33.3-4c-1.08-1.18-3.08-1.53-4.66-2.27 c0.53,1.69,0.61,3.76,1.66,5.01c5.33,6.37,12.05,10.32,20.49,11.2c1.04,0.11,1.95,1.53,2.92,2.35c-1.03,0.71-2.07,2.05-3.09,2.04 c-22.66-0.23-45.32-0.56-67.97-1.07c-1-0.02-2.63-1.79-2.83-2.94c-4.32-24.52-28.46-38.5-51.75-29.85c-0.31,0.12-0.6,0.35-0.92,0.38 c-2.66,0.24-5.33,0.45-8,0.66c0.83-2.35,1.87-4.64,2.46-7.05c1.72-7.1,4.01-14.16,4.73-21.37c1.81-18.06,3.02-36.18,4.22-54.29 c1.4-21.1,5.33-41.31,18.84-58.48c0.71-0.91,1.51-1.93,1.74-3.01c0.5-2.46,0.67-4.99,0.97-7.5c-2.33,0.23-4.66,0.6-7,0.66 c-3.27,0.09-6.78,0.69-9.75-0.27c-4.86-1.57-9.69-3.72-13.97-6.5c-17.31-11.24-34.29-23-51.61-34.22 c-15.56-10.08-26.23-23.61-32.3-41.2C60.56,67.48,55.06,46.45,53.4,24.55c-0.57-7.58-0.17-7.87,7.2-6.52 c21.39,3.9,40.24,13.78,58.2,25.46c36.79,23.92,67.41,54.67,95.86,87.73c8.76,10.18,14.16,11.09,26.66,6.07 c50.53-20.27,101.11-23.67,151.55,0.55c10.98,5.27,18.71,3.27,26.6-6.46c16.39-20.22,33.88-39.41,53.44-56.63 c25.93-22.83,53.91-42.43,86.86-53.96c4.39-1.54,8.91-2.75,13.45-3.8c5.66-1.3,8.69,1.25,7.51,6.87 c-4.1,19.43-8.15,38.88-13.04,58.12c-2.63,10.35-6.73,20.43-13.57,28.92c-3.38,4.2-6.92,8.63-11.31,11.59 c-23.86,16.09-47.99,31.79-72.07,47.54c-4.03,2.63-8.06,3.35-12.45,0c-2.87-2.19-5.7-0.55-5.68,3.16c0.01,2.19,0.9,4.55,1.97,6.54 c15.33,28.62,23.51,58.86,21.99,91.6c-0.68,14.7,1.27,29.26,5.46,43.46c0.58,1.95,0.3,4.16,0.42,6.25c-2.2-0.12-4.49,0.12-6.59-0.41 c-8.78-2.2-17.45-4.22-26.53-1.26c-12.9,4.21-18.44,15.12-24.09,25.93C423.71,348.21,422.84,351.47,421.66,354.61z M254.06,270.75 c0.08-17.79-13.67-31.87-31.35-32.13c-17.72-0.26-32.1,13.96-32.23,31.87c-0.12,17.04,14.25,31.49,31.47,31.63 C239.6,302.27,253.98,288.21,254.06,270.75z M410.91,302.11c17.4-0.03,31.98-14.64,31.8-31.85c-0.18-17.53-14.51-31.67-32.02-31.58 c-17.68,0.09-31.65,14.14-31.63,31.81C379.09,287.99,393.33,302.14,410.91,302.11z M316,288.89c-9.22,0.01-11.91,0.55-11.58,2.84 c0.53,3.65,2.23,7.43,4.39,10.48c2.64,3.74,8.48,4.9,11.57,1.91c3.23-3.14,7.08-7.75,7.01-11.65c-0.09-5.15-6.16-3.18-9.9-3.57 C317.01,288.85,316.5,288.89,316,288.89z"></path> <path class="st1" d="M521.29,354.41c-10.33,0-20.66,0.03-31-0.01c-5.62-0.02-6.11-0.85-3.69-5.75c0.14-0.28,0.05-0.71,0.23-0.92 c5.06-5.8,10.32-11.44,10.16-19.99c-0.01-0.47,3.96-1.96,5.29-1.32c3.3,1.58,4.33,1.2,4.78-2.52c0.28-2.26,1.81-4.36,2.78-6.54 c2.08,1.14,4.46,1.96,6.17,3.51c2.69,2.45,4.81,5.97,7.45-0.08c0.35-0.8,3.11-1.25,4.34-0.78c1.38,0.52,2.5,2.13,3.39,3.5 c2.26,3.49,4.24,4.7,7.59,0.82c2.8-3.25,5.08-2.58,6.29,1.7c0.91,3.18,2.55,4.86,5.57,6.26c8.59,3.97,11.16,11.98,6.49,19.64 c-0.76,1.25-2.86,2.33-4.36,2.36c-10.5,0.2-21,0.11-31.5,0.11C521.29,354.39,521.29,354.4,521.29,354.41z"></path> <path class="st1" d="M148.58,352.65c-2.71,0.76-4.45,1.68-6.2,1.69c-20.99,0.1-41.97,0.01-62.96,0.11c-3.06,0.01-4.49-1.3-5.35-4.01 c-2.47-7.82,0.3-14.72,7.98-18.17c3.02-1.36,4.71-2.91,5.56-6.21c1.13-4.39,3.42-4.88,6.65-1.44c2.93,3.12,4.85,2.73,6.91-0.7 c0.76-1.26,1.84-2.36,2.88-3.42c2.07-2.13,4.24-2.34,5.51,0.62c1.94,4.5,3.95,3.62,6.33,0.5c0.5-0.66,1.04-1.4,1.73-1.78 c1.66-0.91,3.75-2.6,5.06-2.17c1.32,0.44,2.46,3,2.7,4.76c0.51,3.77,1.01,6.17,5.76,3.83c1.1-0.54,3.94,1.29,5.22,2.71 c0.91,1.01,0.7,3.16,0.69,4.81c-0.01,3.16-0.02,5.62,3.38,7.93C143.59,343.84,145.33,348.09,148.58,352.65z"></path> <path class="st2" d="M202.43,353.9c-15.41,0-30,0.06-44.59-0.09c-1.44-0.01-3.35-0.91-4.2-2.04c-2.28-3.02-4.61-6.17-5.99-9.64 c-2.74-6.9-2.04-8.33,4.73-11.48c12.3-5.72,24.66-8.42,36.61,0.81C196.11,336.98,199.39,344.9,202.43,353.9z"></path> <path class="st2" d="M429.67,353.44c3.27-9.83,7.29-18.73,16.27-24.15c9.58-5.78,19.49-4.21,29.36-0.64 c0.63,0.23,1.27,0.46,1.83,0.81c3.77,2.33,9.84,2.45,8.17,9.72c-1.88,8.2-7.25,14.55-13.67,14.64c-13.16,0.18-26.33,0.15-39.49,0.16 C431.39,353.98,430.65,353.66,429.67,353.44z"></path> <path class="st2" d="M288.79,354.66c-1.13-4.09,0.52-5.46,3.69-6.76c4.05-1.67,8.07-3.87,11.44-6.65c7.63-6.3,17.5-6.04,24.84,0.51 c2.98,2.66,6.91,4.56,10.72,5.92c3.73,1.33,5.37,2.94,3.72,6.98C325.13,354.66,307.06,354.66,288.79,354.66z"></path> <path class="st0" d="M254.06,270.75c-0.08,17.47-14.46,31.52-32.12,31.37c-17.22-0.14-31.59-14.59-31.47-31.63 c0.13-17.91,14.51-32.13,32.23-31.87C240.39,238.88,254.13,252.96,254.06,270.75z M215.52,259.67c-0.17,8.04,6.24,14.7,14.31,14.85 c7.75,0.15,14.36-6.12,14.74-14c0.38-7.85-6.14-14.83-14.13-15.13C222.58,245.1,215.69,251.69,215.52,259.67z"></path> <path class="st0" d="M410.91,302.11c-17.58,0.03-31.83-14.11-31.84-31.61c-0.02-17.68,13.95-31.72,31.63-31.81 c17.51-0.09,31.83,14.04,32.02,31.58C442.9,287.47,428.31,302.08,410.91,302.11z M416.63,260.13c0.09-8.05-6.42-14.65-14.48-14.69 c-8.01-0.04-14.57,6.58-14.51,14.66c0.05,7.88,6.45,14.34,14.23,14.37C410.09,274.51,416.54,268.24,416.63,260.13z"></path> <path class="st0" d="M316,288.89c0.5,0,1-0.05,1.5,0.01c3.74,0.39,9.8-1.58,9.9,3.57c0.07,3.9-3.78,8.51-7.01,11.65 c-3.08,3-8.93,1.84-11.57-1.91c-2.16-3.05-3.86-6.83-4.39-10.48C304.1,289.44,306.79,288.9,316,288.89z"></path> <path class="st3" d="M215.52,259.67c0.17-7.98,7.06-14.57,14.92-14.27c7.99,0.3,14.51,7.28,14.13,15.13 c-0.38,7.87-6.99,14.15-14.74,14C221.76,274.36,215.35,267.71,215.52,259.67z"></path> <path class="st3" d="M416.63,260.13c-0.09,8.11-6.54,14.38-14.76,14.34c-7.78-0.03-14.18-6.5-14.23-14.37 c-0.05-8.08,6.5-14.7,14.51-14.66C410.21,245.48,416.72,252.08,416.63,260.13z"></path> </svg> 